<svg width="8" height="8" viewBox="0 0 8 8" fill="none" xmlns="http://www.w3.org/2000/svg">
<g clip-path="url(#clip0_1_162)">
<path d="M3.97528 2.42015C3.04962 2.42015 2.30298 3.16294 2.30298 4.08384C2.30298 5.00473 3.04962 5.74752 3.97528 5.74752C4.90095 5.74752 5.64759 5.00473 5.64759 4.08384C5.64759 3.16294 4.90095 2.42015 3.97528 2.42015ZM3.97528 5.16545C3.3771 5.16545 2.88807 4.68039 2.88807 4.08384C2.88807 3.48728 3.37564 3.00222 3.97528 3.00222C4.57493 3.00222 5.0625 3.48728 5.0625 4.08384C5.0625 4.68039 4.57347 5.16545 3.97528 5.16545V5.16545ZM6.10605 2.35209C6.10605 2.56784 5.9314 2.74014 5.71599 2.74014C5.49913 2.74014 5.32594 2.56639 5.32594 2.35209C5.32594 2.1378 5.50059 1.96405 5.71599 1.96405C5.9314 1.96405 6.10605 2.1378 6.10605 2.35209ZM7.21365 2.74594C7.1889 2.22612 7.06956 1.76568 6.68677 1.38632C6.30545 1.00695 5.84262 0.888224 5.32011 0.862161C4.7816 0.831754 3.16751 0.831754 2.629 0.862161C2.10795 0.886776 1.64512 1.00551 1.26234 1.38487C0.879556 1.76423 0.761665 2.22468 0.735467 2.74449C0.704902 3.28023 0.704902 4.886 0.735467 5.42173C0.760209 5.94155 0.879556 6.40199 1.26234 6.78135C1.64512 7.16072 2.10649 7.27945 2.629 7.30551C3.16751 7.33592 4.7816 7.33592 5.32011 7.30551C5.84262 7.28089 6.30545 7.16216 6.68677 6.78135C7.0681 6.40199 7.18745 5.94155 7.21365 5.42173C7.24421 4.886 7.24421 3.28167 7.21365 2.74594V2.74594ZM6.51794 5.99657C6.40442 6.28037 6.18465 6.499 5.89792 6.61339C5.46857 6.7828 4.44976 6.74371 3.97528 6.74371C3.50081 6.74371 2.48054 6.78135 2.05264 6.61339C1.76738 6.50045 1.5476 6.28181 1.43262 5.99657C1.26234 5.56943 1.30163 4.55586 1.30163 4.08384C1.30163 3.61181 1.26379 2.5968 1.43262 2.1711C1.54615 1.8873 1.76592 1.66867 2.05264 1.55428C2.482 1.38487 3.50081 1.42396 3.97528 1.42396C4.44976 1.42396 5.47002 1.38632 5.89792 1.55428C6.18319 1.66722 6.40296 1.88586 6.51794 2.1711C6.68823 2.59824 6.64893 3.61181 6.64893 4.08384C6.64893 4.55586 6.68823 5.57087 6.51794 5.99657Z" fill="white"/>
</g>
<defs>
<clipPath id="clip0_1_162">
<rect width="6.58976" height="7.41348" fill="white" transform="translate(0.731049 0.378296)"/>
</clipPath>
</defs>
</svg>
